<mxfile host="app.diagrams.net" modified="2022-04-19T16:28:46.787Z" agent="5.0 (Windows NT 10.0; Win64; x64) AppleWebKit/537.36 (KHTML, like Gecko) Chrome/99.100.4896.127 Safari/537.36" etag="N-pVv0rOYfs4SO3uwdTx" version="17.4.0" type="github">
  <diagram id="kgpKYQtTHZ0yAKxKKP6v" name="Page-1">
    <mxGraphModel dx="1384" dy="709" grid="1" gridSize="10" guides="1" tooltips="1" connect="1" arrows="1" fold="1" page="1" pageScale="1" pageWidth="850" pageHeight="1100" math="0" shadow="0">
      <root>
        <mxCell id="0" />
        <mxCell id="1" parent="0" />
        <mxCell id="3nuBFxr9cyL0pnOWT2aG-1" value="User" style="shape=umlLifeline;perimeter=lifelinePerimeter;container=1;collapsible=0;recursiveResize=0;rounded=0;shadow=0;strokeWidth=1;" parent="1" vertex="1">
          <mxGeometry x="60" y="80" width="100" height="640" as="geometry" />
        </mxCell>
        <mxCell id="3nuBFxr9cyL0pnOWT2aG-2" value="" style="points=[];perimeter=orthogonalPerimeter;rounded=0;shadow=0;strokeWidth=1;" parent="3nuBFxr9cyL0pnOWT2aG-1" vertex="1">
          <mxGeometry x="45" y="80" width="10" height="160" as="geometry" />
        </mxCell>
        <mxCell id="3nuBFxr9cyL0pnOWT2aG-5" value="Javascript SPA" style="shape=umlLifeline;perimeter=lifelinePerimeter;container=1;collapsible=0;recursiveResize=0;rounded=0;shadow=0;strokeWidth=1;" parent="1" vertex="1">
          <mxGeometry x="230" y="80" width="100" height="640" as="geometry" />
        </mxCell>
        <mxCell id="3nuBFxr9cyL0pnOWT2aG-6" value="" style="points=[];perimeter=orthogonalPerimeter;rounded=0;shadow=0;strokeWidth=1;" parent="3nuBFxr9cyL0pnOWT2aG-5" vertex="1">
          <mxGeometry x="45" y="80" width="10" height="160" as="geometry" />
        </mxCell>
        <mxCell id="5LIumjL04RLs9ftHa9az-18" value="" style="points=[];perimeter=orthogonalPerimeter;rounded=0;shadow=0;strokeWidth=1;" vertex="1" parent="3nuBFxr9cyL0pnOWT2aG-5">
          <mxGeometry x="45" y="360.48" width="10" height="240" as="geometry" />
        </mxCell>
        <mxCell id="3nuBFxr9cyL0pnOWT2aG-8" value="Click Login Link" style="verticalAlign=bottom;endArrow=block;entryX=0;entryY=0;shadow=0;strokeWidth=1;" parent="1" source="3nuBFxr9cyL0pnOWT2aG-2" target="3nuBFxr9cyL0pnOWT2aG-6" edge="1">
          <mxGeometry relative="1" as="geometry">
            <mxPoint x="192" y="160" as="sourcePoint" />
          </mxGeometry>
        </mxCell>
        <mxCell id="3nuBFxr9cyL0pnOWT2aG-9" value="Credential Request" style="verticalAlign=bottom;endArrow=block;entryX=-0.014;entryY=0.25;shadow=0;strokeWidth=1;entryDx=0;entryDy=0;entryPerimeter=0;" parent="1" source="3nuBFxr9cyL0pnOWT2aG-6" target="5LIumjL04RLs9ftHa9az-2" edge="1">
          <mxGeometry relative="1" as="geometry">
            <mxPoint x="157" y="200" as="sourcePoint" />
          </mxGeometry>
        </mxCell>
        <mxCell id="5LIumjL04RLs9ftHa9az-1" value="Auth0 &#xa;Authentication API" style="shape=umlLifeline;perimeter=lifelinePerimeter;container=1;collapsible=0;recursiveResize=0;rounded=0;shadow=0;strokeWidth=1;" vertex="1" parent="1">
          <mxGeometry x="400" y="80" width="100" height="640" as="geometry" />
        </mxCell>
        <mxCell id="5LIumjL04RLs9ftHa9az-2" value="" style="points=[];perimeter=orthogonalPerimeter;rounded=0;shadow=0;strokeWidth=1;" vertex="1" parent="5LIumjL04RLs9ftHa9az-1">
          <mxGeometry x="45" y="80" width="10" height="160" as="geometry" />
        </mxCell>
        <mxCell id="5LIumjL04RLs9ftHa9az-3" value="Resource Server" style="shape=umlLifeline;perimeter=lifelinePerimeter;container=1;collapsible=0;recursiveResize=0;rounded=0;shadow=0;strokeWidth=1;" vertex="1" parent="1">
          <mxGeometry x="567" y="80" width="100" height="640" as="geometry" />
        </mxCell>
        <mxCell id="5LIumjL04RLs9ftHa9az-4" value="" style="points=[];perimeter=orthogonalPerimeter;rounded=0;shadow=0;strokeWidth=1;" vertex="1" parent="5LIumjL04RLs9ftHa9az-3">
          <mxGeometry x="45" y="80" width="10" height="160" as="geometry" />
        </mxCell>
        <mxCell id="5LIumjL04RLs9ftHa9az-19" value="" style="points=[];perimeter=orthogonalPerimeter;rounded=0;shadow=0;strokeWidth=1;" vertex="1" parent="5LIumjL04RLs9ftHa9az-3">
          <mxGeometry x="45" y="320" width="10" height="280.48" as="geometry" />
        </mxCell>
        <mxCell id="5LIumjL04RLs9ftHa9az-5" value="Auth0Â &#xa;Management API" style="shape=umlLifeline;perimeter=lifelinePerimeter;container=1;collapsible=0;recursiveResize=0;rounded=0;shadow=0;strokeWidth=1;" vertex="1" parent="1">
          <mxGeometry x="740" y="80" width="100" height="640" as="geometry" />
        </mxCell>
        <mxCell id="5LIumjL04RLs9ftHa9az-6" value="" style="points=[];perimeter=orthogonalPerimeter;rounded=0;shadow=0;strokeWidth=1;" vertex="1" parent="5LIumjL04RLs9ftHa9az-5">
          <mxGeometry x="45" y="80" width="10" height="160" as="geometry" />
        </mxCell>
        <mxCell id="5LIumjL04RLs9ftHa9az-22" value="" style="points=[];perimeter=orthogonalPerimeter;rounded=0;shadow=0;strokeWidth=1;" vertex="1" parent="5LIumjL04RLs9ftHa9az-5">
          <mxGeometry x="45" y="320" width="10" height="280.48" as="geometry" />
        </mxCell>
        <mxCell id="5LIumjL04RLs9ftHa9az-10" value="Redirect to login/Authorization Prompt" style="verticalAlign=bottom;endArrow=block;entryX=0.924;entryY=0.502;shadow=0;strokeWidth=1;entryDx=0;entryDy=0;entryPerimeter=0;exitX=0.029;exitY=0.503;exitDx=0;exitDy=0;exitPerimeter=0;" edge="1" parent="1" source="5LIumjL04RLs9ftHa9az-2" target="3nuBFxr9cyL0pnOWT2aG-2">
          <mxGeometry x="-0.0014" relative="1" as="geometry">
            <mxPoint x="282" y="209.68" as="sourcePoint" />
            <mxPoint x="119.35000000000014" y="245.2399999999999" as="targetPoint" />
            <mxPoint as="offset" />
          </mxGeometry>
        </mxCell>
        <mxCell id="5LIumjL04RLs9ftHa9az-11" value="Authenticate and Consent" style="verticalAlign=bottom;endArrow=block;shadow=0;strokeWidth=1;exitX=1.076;exitY=0.75;exitDx=0;exitDy=0;exitPerimeter=0;entryX=0.154;entryY=0.75;entryDx=0;entryDy=0;entryPerimeter=0;" edge="1" parent="1" source="3nuBFxr9cyL0pnOWT2aG-2" target="5LIumjL04RLs9ftHa9az-2">
          <mxGeometry x="-0.007" relative="1" as="geometry">
            <mxPoint x="120.08999999999992" y="274.52" as="sourcePoint" />
            <mxPoint x="440" y="275" as="targetPoint" />
            <mxPoint as="offset" />
          </mxGeometry>
        </mxCell>
        <mxCell id="5LIumjL04RLs9ftHa9az-12" value="JWT token" style="verticalAlign=bottom;endArrow=block;shadow=0;strokeWidth=1;entryX=1.07;entryY=0.999;entryDx=0;entryDy=0;entryPerimeter=0;exitX=-0.016;exitY=0.999;exitDx=0;exitDy=0;exitPerimeter=0;" edge="1" parent="1" source="5LIumjL04RLs9ftHa9az-2" target="3nuBFxr9cyL0pnOWT2aG-6">
          <mxGeometry x="0.0626" relative="1" as="geometry">
            <mxPoint x="380" y="330" as="sourcePoint" />
            <mxPoint x="280" y="308" as="targetPoint" />
            <mxPoint as="offset" />
          </mxGeometry>
        </mxCell>
        <mxCell id="5LIumjL04RLs9ftHa9az-14" value="&lt;h1&gt;&lt;font style=&quot;font-size: 18px&quot;&gt;Login Flow&lt;/font&gt;&lt;/h1&gt;" style="text;html=1;strokeColor=none;fillColor=none;spacing=5;spacingTop=-20;whiteSpace=wrap;overflow=hidden;rounded=0;" vertex="1" parent="1">
          <mxGeometry y="120" width="105" height="40" as="geometry" />
        </mxCell>
        <mxCell id="5LIumjL04RLs9ftHa9az-15" value="&lt;h1&gt;&lt;font style=&quot;font-size: 18px&quot;&gt;Order Flow&lt;/font&gt;&lt;/h1&gt;" style="text;html=1;strokeColor=none;fillColor=none;spacing=5;spacingTop=-20;whiteSpace=wrap;overflow=hidden;rounded=0;" vertex="1" parent="1">
          <mxGeometry y="360" width="105" height="40" as="geometry" />
        </mxCell>
        <mxCell id="5LIumjL04RLs9ftHa9az-16" value="" style="points=[];perimeter=orthogonalPerimeter;rounded=0;shadow=0;strokeWidth=1;" vertex="1" parent="1">
          <mxGeometry x="105" y="440.48" width="10" height="240" as="geometry" />
        </mxCell>
        <mxCell id="5LIumjL04RLs9ftHa9az-17" value="Click on Order Button" style="verticalAlign=bottom;endArrow=block;entryX=0.046;entryY=0.002;shadow=0;strokeWidth=1;exitX=0.954;exitY=-0.002;exitDx=0;exitDy=0;exitPerimeter=0;entryDx=0;entryDy=0;entryPerimeter=0;" edge="1" parent="1" source="5LIumjL04RLs9ftHa9az-16" target="5LIumjL04RLs9ftHa9az-18">
          <mxGeometry relative="1" as="geometry">
            <mxPoint x="115" y="440.48" as="sourcePoint" />
            <mxPoint x="275.0000000000001" y="440.48" as="targetPoint" />
          </mxGeometry>
        </mxCell>
        <mxCell id="5LIumjL04RLs9ftHa9az-20" value="JWT request with order details" style="verticalAlign=bottom;endArrow=block;shadow=0;strokeWidth=1;exitX=1.002;exitY=0.166;exitDx=0;exitDy=0;exitPerimeter=0;entryX=0.008;entryY=0.285;entryDx=0;entryDy=0;entryPerimeter=0;" edge="1" parent="1" source="5LIumjL04RLs9ftHa9az-18" target="5LIumjL04RLs9ftHa9az-19">
          <mxGeometry relative="1" as="geometry">
            <mxPoint x="290" y="480.48" as="sourcePoint" />
            <mxPoint x="560" y="480" as="targetPoint" />
          </mxGeometry>
        </mxCell>
        <mxCell id="5LIumjL04RLs9ftHa9az-23" value="Request Verified User Details" style="verticalAlign=bottom;endArrow=block;shadow=0;strokeWidth=1;exitX=1.031;exitY=0.426;exitDx=0;exitDy=0;exitPerimeter=0;entryX=0.02;entryY=0.425;entryDx=0;entryDy=0;entryPerimeter=0;" edge="1" parent="1" source="5LIumjL04RLs9ftHa9az-19" target="5LIumjL04RLs9ftHa9az-22">
          <mxGeometry x="-0.0475" relative="1" as="geometry">
            <mxPoint x="630" y="520.48" as="sourcePoint" />
            <mxPoint x="780" y="520.48" as="targetPoint" />
            <mxPoint as="offset" />
          </mxGeometry>
        </mxCell>
        <mxCell id="5LIumjL04RLs9ftHa9az-24" value="Return User Details" style="verticalAlign=bottom;endArrow=block;shadow=0;strokeWidth=1;entryX=1.09;entryY=0.569;entryDx=0;entryDy=0;entryPerimeter=0;exitX=-0.106;exitY=0.569;exitDx=0;exitDy=0;exitPerimeter=0;" edge="1" parent="1" source="5LIumjL04RLs9ftHa9az-22" target="5LIumjL04RLs9ftHa9az-19">
          <mxGeometry relative="1" as="geometry">
            <mxPoint x="785" y="560.48" as="sourcePoint" />
            <mxPoint x="622.0799999999999" y="561.76" as="targetPoint" />
          </mxGeometry>
        </mxCell>
        <mxCell id="5LIumjL04RLs9ftHa9az-25" value="Update app_metadata" style="verticalAlign=bottom;endArrow=block;shadow=0;strokeWidth=1;exitX=1.194;exitY=0.711;exitDx=0;exitDy=0;exitPerimeter=0;entryX=-0.003;entryY=0.711;entryDx=0;entryDy=0;entryPerimeter=0;" edge="1" parent="1" source="5LIumjL04RLs9ftHa9az-19" target="5LIumjL04RLs9ftHa9az-22">
          <mxGeometry x="-0.0475" relative="1" as="geometry">
            <mxPoint x="632.76" y="530.29" as="sourcePoint" />
            <mxPoint x="730" y="601.48" as="targetPoint" />
            <mxPoint as="offset" />
          </mxGeometry>
        </mxCell>
        <mxCell id="5LIumjL04RLs9ftHa9az-26" value="Response(Success/Failure)" style="verticalAlign=bottom;endArrow=block;shadow=0;strokeWidth=1;entryX=0.987;entryY=0.858;entryDx=0;entryDy=0;entryPerimeter=0;exitX=-0.055;exitY=0.854;exitDx=0;exitDy=0;exitPerimeter=0;" edge="1" parent="1" source="5LIumjL04RLs9ftHa9az-22" target="5LIumjL04RLs9ftHa9az-19">
          <mxGeometry relative="1" as="geometry">
            <mxPoint x="795.1700000000001" y="570.0000000000001" as="sourcePoint" />
            <mxPoint x="631.3700000000001" y="570.31" as="targetPoint" />
          </mxGeometry>
        </mxCell>
        <mxCell id="5LIumjL04RLs9ftHa9az-27" value="Response( Success/Failure)" style="verticalAlign=bottom;endArrow=block;shadow=0;strokeWidth=1;exitX=0.43;exitY=1.002;exitDx=0;exitDy=0;exitPerimeter=0;entryX=0.988;entryY=1.003;entryDx=0;entryDy=0;entryPerimeter=0;" edge="1" parent="1" source="5LIumjL04RLs9ftHa9az-19" target="5LIumjL04RLs9ftHa9az-18">
          <mxGeometry relative="1" as="geometry">
            <mxPoint x="621.98" y="490.55999999999995" as="sourcePoint" />
            <mxPoint x="295.02" y="490.31999999999994" as="targetPoint" />
          </mxGeometry>
        </mxCell>
        <mxCell id="5LIumjL04RLs9ftHa9az-28" value="Request Management API token" style="verticalAlign=bottom;endArrow=block;shadow=0;strokeWidth=1;exitX=1.011;exitY=0.334;exitDx=0;exitDy=0;exitPerimeter=0;entryX=-0.005;entryY=0.333;entryDx=0;entryDy=0;entryPerimeter=0;" edge="1" parent="1">
          <mxGeometry x="-0.0174" relative="1" as="geometry">
            <mxPoint x="619.9999999999999" y="400.32032000000004" as="sourcePoint" />
            <mxPoint x="782.84" y="399.99984000000006" as="targetPoint" />
            <mxPoint as="offset" />
          </mxGeometry>
        </mxCell>
        <mxCell id="5LIumjL04RLs9ftHa9az-29" value="Return Management Token" style="verticalAlign=bottom;endArrow=block;shadow=0;strokeWidth=1;exitX=1.011;exitY=0.334;exitDx=0;exitDy=0;exitPerimeter=0;entryX=-0.005;entryY=0.333;entryDx=0;entryDy=0;entryPerimeter=0;" edge="1" parent="1">
          <mxGeometry x="-0.0475" relative="1" as="geometry">
            <mxPoint x="784.84" y="439.99984000000006" as="sourcePoint" />
            <mxPoint x="621.9999999999999" y="440.32032000000004" as="targetPoint" />
            <mxPoint as="offset" />
          </mxGeometry>
        </mxCell>
        <mxCell id="5LIumjL04RLs9ftHa9az-31" value="&lt;h1&gt;Sequence Diagrams&lt;/h1&gt;" style="text;html=1;strokeColor=none;fillColor=none;spacing=5;spacingTop=-20;whiteSpace=wrap;overflow=hidden;rounded=0;fontSize=18;" vertex="1" parent="1">
          <mxGeometry x="245" y="10" width="360" height="120" as="geometry" />
        </mxCell>
      </root>
    </mxGraphModel>
  </diagram>
</mxfile>
